
<svg xmlns="http://www.w3.org/2000/svg" viewBox="0 0 283.46 116.13"><defs><style>.cls-1{fill:#0086f8;}.cls-2{fill:#ff8300;}.cls-3{fill:#51c21a;}.cls-4{fill:#333f48;}</style></defs><title>Asset 2</title><g id="Layer_2" data-name="Layer 2"><g id="Layer_1-2" data-name="Layer 1"><path class="cls-1" d="M102.55,72a36.87,36.87,0,0,0-12-10.91c-6.31-3.72-15.2-3.36-15.2-3.36a11.77,11.77,0,0,1-15.76,5.91c-6.89,9-6.22,16.51-6.16,17,.39,11.57,11.58,35.43,56.35,35.5.13-.94,3.84-29.56-7.28-44.14"/><path class="cls-2" d="M66.3,11.46C53.84-.68,30.83-5.17,1.27,8c.08.33,8.9,37.83,48.54,43.79h.1c.88.05,1.9.14,3,.26h0A11.75,11.75,0,0,1,64.64,41.24a12.71,12.71,0,0,1,3.92.63C80,24.5,67.69,12.71,66.3,11.46Z"/><path class="cls-3" d="M59.64,63.63h0A11.75,11.75,0,0,1,52.87,53c0-.29,0-.63.05-.95a51.05,51.05,0,0,0-6.1-.35,49.84,49.84,0,0,0-28.74,9.76C1.46,74.45,0,95.78,0,95.78c.88.11,30.3,4,48.16-13.67A35.91,35.91,0,0,0,53.05,76s.47-.74,1.24-2h0a30.92,30.92,0,0,1,5.35-10.35Z"/><path class="cls-4" d="M253.16,27.4c-8.69,0-16,3.67-20.46,9.54V34.06A6.71,6.71,0,0,0,226,27.4h0a6.71,6.71,0,0,0-6.7,6.66v75.29a6.82,6.82,0,0,0,6.81,6.78h0a6.82,6.82,0,0,0,6.81-6.78V82.85a27.28,27.28,0,0,0,20.49,8.83c15.21,0,30-11.29,30-32.26C283.46,38.07,267.64,27.4,253.16,27.4Zm-1.47,51.89c-9.32,0-18.77-6.75-18.77-20.12,0-13.13,9.32-19.63,18.65-19.63S270,45.92,270,59.29,261,79.29,251.69,79.29Z"/><path class="cls-4" d="M175.27,91.68c8.7,0,16-3.67,20.47-9.54V85a6.71,6.71,0,0,0,6.69,6.67h0a6.71,6.71,0,0,0,6.7-6.67V9.72A6.82,6.82,0,0,0,202.32,3h0a6.82,6.82,0,0,0-6.81,6.77V36.23A27.24,27.24,0,0,0,175,27.4C159.82,27.4,145,38.68,145,59.66,145,81,160.8,91.68,175.27,91.68Zm1.48-51.89c9.32,0,18.76,6.74,18.76,20.12,0,13.12-9.32,19.62-18.64,19.62s-18.4-6.38-18.4-19.75S167.42,39.79,176.75,39.79Z"/><path class="cls-4" d="M130.2,0a9.48,9.48,0,0,0-9.69,9.69,9.48,9.48,0,0,0,9.69,9.69A9.58,9.58,0,0,0,140,9.69,9.58,9.58,0,0,0,130.2,0Z"/><path class="cls-4" d="M130.2,27.4h0a6.82,6.82,0,0,0-6.81,6.78V85.13h0a6.82,6.82,0,0,0,6.8,6.55h0A6.82,6.82,0,0,0,137,85.13h0v-.22h0V34.18A6.82,6.82,0,0,0,130.2,27.4Z"/></g></g></svg>