<?xml version="1.0" encoding="utf-8"?>
<!-- Generator: Adobe Illustrator 28.1.0, SVG Export Plug-In . SVG Version: 6.00 Build 0)  -->
<svg version="1.1" id="Layer_1" xmlns="http://www.w3.org/2000/svg" xmlns:xlink="http://www.w3.org/1999/xlink" x="0px" y="0px"
	 viewBox="0 0 32 32" style="enable-background:new 0 0 32 32;" xml:space="preserve">
<style type="text/css">
	.st0{fill:#FFFFFF;}
	.st1{fill:#1C1F2A;}
</style>
<path class="st0" d="M0,16c0,8.8,7.2,16,16,16c8.8,0,16-7.2,16-16c0-8.8-7.2-16-16-16C7.2,0,0,7.2,0,16z"/>
<path class="st1" d="M12.7,8.1c-0.9,0-1.4,0.2-1.9,0.4c-0.5,0.2-1,0.5-1.4,0.9s-0.7,0.9-0.9,1.4c-0.2,0.5-0.3,1.1-0.4,1.9
	s0,1.1,0,3.3s0,2.4,0.1,3.3c0,0.9,0.2,1.4,0.4,1.9c0.2,0.5,0.5,1,0.9,1.4c0.4,0.4,0.9,0.7,1.4,0.9c0.5,0.2,1.1,0.3,1.9,0.4
	s1.1,0,3.3,0c2.2,0,2.4,0,3.3-0.1c0.9,0,1.4-0.2,1.9-0.4c0.5-0.2,1-0.5,1.4-0.9s0.7-0.9,0.9-1.4c0.2-0.5,0.3-1.1,0.4-1.9
	c0-0.9,0-1.1,0-3.3c0-2.2,0-2.4-0.1-3.3c0-0.9-0.2-1.4-0.4-1.9c-0.2-0.5-0.5-1-0.9-1.4c-0.4-0.4-0.9-0.7-1.4-0.9
	c-0.5-0.2-1.1-0.3-1.9-0.4c-0.9,0-1.1,0-3.3,0S13.5,8,12.7,8.1 M12.8,22.5c-0.8,0-1.2-0.2-1.5-0.3c-0.4-0.1-0.6-0.3-0.9-0.6
	c-0.3-0.3-0.5-0.5-0.6-0.9c-0.1-0.3-0.2-0.7-0.3-1.5c0-0.8,0-1.1-0.1-3.2c0-2.1,0-2.4,0-3.2c0-0.8,0.2-1.2,0.3-1.5
	c0.1-0.4,0.3-0.6,0.6-0.9c0.3-0.3,0.5-0.5,0.9-0.6c0.3-0.1,0.7-0.2,1.5-0.3c0.8,0,1.1,0,3.2-0.1c2.1,0,2.4,0,3.2,0
	c0.8,0,1.2,0.2,1.5,0.3c0.4,0.1,0.6,0.3,0.9,0.6c0.3,0.3,0.5,0.5,0.6,0.9c0.1,0.3,0.2,0.7,0.3,1.5c0,0.8,0,1.1,0.1,3.2
	c0,2.1,0,2.4,0,3.2c0,0.8-0.2,1.2-0.3,1.5c-0.1,0.4-0.3,0.6-0.6,0.9c-0.3,0.3-0.5,0.5-0.9,0.6c-0.3,0.1-0.7,0.2-1.5,0.3
	c-0.8,0-1.1,0-3.2,0.1C13.9,22.6,13.6,22.6,12.8,22.5 M19.3,11.7c0,0.5,0.4,1,1,1c0.5,0,1-0.4,1-1c0-0.5-0.4-1-1-1c0,0,0,0,0,0
	C19.7,10.8,19.3,11.2,19.3,11.7 M11.9,16c0,2.3,1.8,4.1,4.1,4.1s4.1-1.8,4.1-4.1s-1.8-4.1-4.1-4.1C13.7,11.9,11.9,13.7,11.9,16
	 M13.3,16c0-1.5,1.2-2.7,2.7-2.7c1.5,0,2.7,1.2,2.7,2.7c0,1.5-1.2,2.7-2.7,2.7C14.5,18.7,13.3,17.5,13.3,16C13.3,16,13.3,16,13.3,16
	"/>
</svg>
